<?xml version="1.0" encoding="UTF-8" standalone="no"?><!DOCTYPE svg PUBLIC "-//W3C//DTD SVG 1.1//EN" "http://www.w3.org/Graphics/SVG/1.1/DTD/svg11.dtd"><svg width="100%" height="100%" viewBox="0 0 634 220" version="1.1" xmlns="http://www.w3.org/2000/svg" xmlns:xlink="http://www.w3.org/1999/xlink" xml:space="preserve" xmlns:serif="http://www.serif.com/" style="fill-rule:evenodd;clip-rule:evenodd;stroke-linejoin:round;stroke-miterlimit:2;"><rect id="REZYFI-LOGO-634x220" serif:id="REZYFI LOGO 634x220" x="0" y="0" width="634" height="220" style="fill:none;"/><g><path d="M52.966,25.969c3.557,0 6.441,2.883 6.442,6.441c0.006,25.198 0.028,116.949 0.034,142.153c0,1.709 -0.678,3.348 -1.886,4.556c-1.208,1.208 -2.847,1.887 -4.556,1.887c-6.026,0 -14.978,0 -21.003,0c-1.709,0 -3.347,-0.679 -4.555,-1.887c-1.208,-1.208 -1.887,-2.847 -1.887,-4.555c0,-25.201 0,-116.952 0,-142.153c-0,-1.709 0.679,-3.347 1.887,-4.555c1.208,-1.208 2.847,-1.887 4.555,-1.887c6.018,-0 14.952,-0 20.969,-0Zm19.86,6.442c-0,-1.709 0.679,-3.347 1.887,-4.555c1.208,-1.208 2.847,-1.887 4.555,-1.887c1.013,-0 1.736,-0 1.736,-0c30.57,0 54.035,16.361 54.035,48.869c-0,18.422 -6.534,29.305 -16.943,36.343c-2.48,1.675 -3.47,4.844 -2.386,7.633c5.247,13.584 19.843,51.12 26.52,68.29c0.771,1.982 0.514,4.217 -0.687,5.972c-1.201,1.755 -3.19,2.805 -5.317,2.805c-8.085,-0 -19.406,-0 -25.732,-0c-2.829,0 -5.327,-1.845 -6.158,-4.549c-5.047,-16.417 -22.37,-72.765 -28.949,-94.166c-0.601,-1.954 -0.238,-4.077 0.976,-5.721c1.215,-1.644 3.137,-2.614 5.182,-2.614c1.276,-0 2.175,0 2.175,0c12.917,-0 17.007,-5.167 17.007,-13.347c0,-7.965 -4.09,-13.778 -17.007,-13.778c-0,-0 -2.101,-0 -4.453,-0c-3.558,-0 -6.442,-2.884 -6.442,-6.442c0,-6.47 0,-16.382 0,-22.852Z" style="fill:#214a86;"/><path d="M239.69,174.081c3.048,-0 5.519,-2.471 5.519,-5.519c0,-5.471 0,-13.805 0,-19.276c-0,-3.048 -2.471,-5.519 -5.519,-5.519c-10.383,0 -32.711,0 -43.094,0c-1.464,0 -2.868,-0.582 -3.903,-1.617c-1.035,-1.035 -1.617,-2.439 -1.617,-3.903c-0,-3.105 -0,-6.968 -0,-10.073c-0,-1.464 0.582,-2.868 1.617,-3.903c1.035,-1.035 2.439,-1.617 3.903,-1.617c6.268,0 16.436,0 22.704,0c3.048,-0 5.519,-2.471 5.519,-5.519c-0,-4.495 -0,-10.811 -0,-15.306c-0,-3.048 -2.471,-5.519 -5.519,-5.519c-6.268,-0 -16.436,-0 -22.704,-0c-1.464,-0 -2.868,-0.582 -3.903,-1.617c-1.035,-1.035 -1.617,-2.439 -1.617,-3.903c-0,-2.277 -0,-4.909 -0,-7.186c-0,-1.464 0.582,-2.868 1.617,-3.903c1.035,-1.035 2.439,-1.617 3.903,-1.617c10.023,0 30.934,0 39.105,0c2.071,-0 3.968,-1.16 4.912,-3.003c2.278,-4.446 6.627,-12.936 9.874,-19.276c0.877,-1.711 0.8,-3.755 -0.203,-5.395c-1.003,-1.64 -2.787,-2.641 -4.709,-2.641c-19.916,0 -67.126,0 -83.263,0c-1.464,-0 -2.868,0.582 -3.903,1.617c-1.035,1.035 -1.617,2.439 -1.617,3.903c0,20.818 0,94.453 0,115.272c-0,1.464 0.582,2.868 1.617,3.903c1.035,1.035 2.439,1.617 3.903,1.617c15.871,-0 61.507,-0 77.379,-0Z" style="fill:#214a86;fill-rule:nonzero;"/><path d="M355.651,174.081c3.048,-0 5.519,-2.471 5.519,-5.519c0,-5.471 0,-13.805 0,-19.276c-0,-3.048 -2.471,-5.519 -5.519,-5.519c-9.311,0 -28.219,0 -39.438,0c-1.913,0 -3.689,-0.99 -4.695,-2.618c-1.006,-1.627 -1.097,-3.659 -0.242,-5.37c9.038,-18.076 30.972,-61.945 40.01,-80.02c0.855,-1.711 0.764,-3.743 -0.242,-5.37c-1.006,-1.627 -2.782,-2.618 -4.695,-2.618c-17.804,0 -57.04,0 -69.08,0c-2.18,-0 -4.155,1.283 -5.042,3.274c-2.039,4.579 -5.804,13.035 -8.584,19.276c-0.76,1.707 -0.605,3.684 0.413,5.251c1.018,1.568 2.76,2.514 4.629,2.514c7.817,0 19.373,0 27.364,0c1.926,-0 3.713,1.004 4.715,2.649c1.002,1.645 1.073,3.694 0.189,5.405c-9.353,18.094 -31.942,61.794 -41.296,79.888c-0.884,1.711 -0.813,3.759 0.189,5.405c1.002,1.645 2.788,2.649 4.715,2.649c21.278,-0 73.912,-0 91.09,-0Z" style="fill:#214a86;fill-rule:nonzero;"/><path d="M459.431,55.822c0.883,-1.711 0.811,-3.759 -0.191,-5.403c-1.002,-1.645 -2.788,-2.648 -4.714,-2.648c-8.398,-0 -20.468,-0 -26.449,-0c-2.211,0 -4.209,1.32 -5.077,3.353c-3.975,9.317 -14.921,34.972 -15.831,37.105c-0.042,0.098 -0.086,0.194 -0.133,0.289c-0.014,0.027 -0.028,0.055 -0.041,0.082c-0.619,1.25 -1.897,2.037 -3.291,2.029c-1.395,-0.009 -2.662,-0.812 -3.266,-2.069c-0.002,-0.002 -0.004,-0.005 -0.005,-0.008c-0,-0 -0,-0 -0,-0c-0.031,-0.066 -10.229,-21.553 -16.615,-35.01c-0.917,-1.932 -2.868,-3.161 -5.007,-3.153c-2.139,0.008 -4.081,1.251 -4.983,3.19c-4.01,8.615 -9.357,20.1 -11.662,25.054c-0.718,1.542 -0.685,3.328 0.09,4.843c4.552,8.901 20.38,39.847 23.679,46.297c0.398,0.778 0.605,1.639 0.605,2.513c-0,5.444 -0,26.22 -0,36.277c0,1.464 0.582,2.868 1.617,3.903c1.035,1.035 2.439,1.617 3.903,1.617c6.35,0 16.715,0 23.065,0c1.464,0 2.868,-0.582 3.903,-1.617c1.035,-1.035 1.617,-2.439 1.617,-3.903c-0,-10.05 -0,-30.805 -0,-36.266c0,-0.881 0.211,-1.749 0.615,-2.532c4.163,-8.063 28.341,-54.895 38.174,-73.942Z" style="fill:#214a86;fill-rule:nonzero;"/><path d="M558.395,78.085c3.048,0 5.519,-2.471 5.519,-5.519c0,-5.471 0,-13.805 0,-19.276c-0,-3.048 -2.471,-5.519 -5.519,-5.519c-15.244,0 -57.804,0 -73.048,0c-1.464,0 -2.868,0.582 -3.903,1.617c-1.035,1.035 -1.617,2.439 -1.617,3.903c-0,20.818 -0,94.453 -0,115.272c-0,1.464 0.582,2.868 1.617,3.903c1.035,1.035 2.439,1.617 3.903,1.617c6.391,0 16.855,0 23.245,0c1.464,0 2.868,-0.582 3.903,-1.617c1.035,-1.035 1.617,-2.439 1.617,-3.903c-0,-9.581 -0,-29.182 -0,-38.764c-0,-3.048 2.471,-5.519 5.519,-5.519c6.713,-0 17.976,-0 24.689,-0c3.048,-0 5.519,-2.471 5.519,-5.519c-0,-4.902 -0,-12.028 0,-16.93c-0,-3.048 -2.471,-5.519 -5.519,-5.519l-24.689,0c-1.464,-0 -2.868,-0.582 -3.903,-1.617c-1.035,-1.035 -1.617,-2.439 -1.617,-3.903c-0,-2.277 -0,-4.909 -0,-7.186c-0,-1.464 0.582,-2.868 1.617,-3.903c1.035,-1.035 2.439,-1.617 3.903,-1.617c9.581,0 29.182,0 38.764,0Z" style="fill:#214a86;fill-rule:nonzero;"/><path d="M609.821,174.081c1.464,0 2.868,-0.582 3.903,-1.617c1.035,-1.035 1.617,-2.439 1.617,-3.903c-0,-20.818 -0,-94.453 -0,-115.272c0,-1.464 -0.582,-2.868 -1.617,-3.903c-1.035,-1.035 -2.439,-1.617 -3.903,-1.617c-6.391,-0 -16.855,-0 -23.245,-0c-1.464,-0 -2.868,0.582 -3.903,1.617c-1.035,1.035 -1.617,2.439 -1.617,3.903c0,20.818 0,94.453 0,115.272c-0,1.464 0.582,2.868 1.617,3.903c1.035,1.035 2.439,1.617 3.903,1.617c6.391,0 16.855,0 23.245,0Z" style="fill:#214a86;fill-rule:nonzero;"/><circle cx="451.398" cy="157.089" r="14.594" style="fill:#218662;"/></g></svg>