<svg xmlns="http://www.w3.org/2000/svg" viewBox="0 0 772.83 311.74"><defs><style>.cls-1{fill:#fff;}</style></defs><g id="Layer_2" data-name="Layer 2"><g id="Layer_1-2" data-name="Layer 1"><path class="cls-1" d="M149.34,164.13s-.74,14.26,6.82,13.52c6.17-.61,30.29-53.91,28.16-67.79-1.16,1.5-2.84,3.67-4.9,6.27-14.32,18.14-26.59,31.78-35.61,41.59-24.92,27.09-37.38,40.64-44.34,45.72-11,8-29.4,19-57.21,25.25,6.86.9,36-1.24,70.5-27.55C133.09,185.62,149.34,164.13,149.34,164.13Z"/><path class="cls-1" d="M625.58,168.7s.64,12.39-5.93,11.74c-5.35-.53-26.3-46.81-24.44-58.86,1,1.3,2.47,3.19,4.25,5.44,12.44,15.75,23.09,27.6,30.92,36.11,21.64,23.53,32.46,35.3,38.5,39.7,9.54,7,25.54,16.5,49.68,21.93-5.95.78-31.28-1.08-61.22-23.92C639.69,187.36,625.58,168.7,625.58,168.7Z"/><path class="cls-1" d="M324.48,146s-1.09,21.16,10.12,20.05c9.15-.9,44.92-79.93,41.76-100.52-1.72,2.22-4.22,5.45-7.26,9.3-21.25,26.89-39.43,47.12-52.81,61.66-37,40.19-55.44,60.28-65.76,67.8-16.29,11.89-43.6,28.17-84.84,37.45,10.17,1.33,53.43-1.84,104.55-40.85C300.39,177.92,324.48,146,324.48,146Z"/><path class="cls-1" d="M474.34,172.89c-37-19.17-39.65-48.16-39.65-48.16s-15,20.27-29.12,16.81-10.86,21.33-10.86,21.33c26.4-21.43,87.76,17,87.76,17S511.37,192.06,474.34,172.89Z"/><path class="cls-1" d="M610.87,231.33c1.55.46,2.37.65,2.37.65-.63-.19-1.26-.4-1.9-.63,57.33,3.56,89.82,12.88,89.82,12.88-43-15.06-82.39-24.73-119.34-30.25-22.63-17.74-46.78-45-68.78-72.5,26.63-29.6,46.86-55,55.43-55.39,11.63.48,44.71,47.12,86.12,87.68s73.16,48,73.16,48C689.2,209.84,633.4,124.17,613,99.89a195,195,0,0,0-44.56-38.55,195,195,0,0,0-44.56,38.55c-5.17,6.16-12.62,16.28-21.49,28.14-23.32-30-43.31-58.22-55.1-72.27A281.82,281.82,0,0,0,382.87,0a281.82,281.82,0,0,0-64.45,55.76c-11.72,14-31.54,42-54.68,71.74-8.7-11.63-16-21.54-21.1-27.61a195,195,0,0,0-44.56-38.55,195,195,0,0,0-44.56,38.55c-20.37,24.28-76.17,110-114.72,121.85,0,0,31.75-7.41,73.16-48s74.49-87.2,86.12-87.68c8.52.35,28.59,25.52,55,54.92-32.77,40.92-70.35,81.64-100.58,91,0,0,45.92-10.7,105.81-69.37S366.06,36.48,382.87,35.8c16.82.68,64.67,68.15,124.56,126.81,24,23.51,45.76,39.32,63.22,49.82C442.26,195.93,343.53,229.5,229.74,260,80.36,300.13,0,240.86,0,240.86S34.05,365.74,266.27,284C413.26,232.23,534.18,226.62,610.87,231.33Z"/><path class="cls-1" d="M273.46,304.91c293.1-68.43,499.37-43.27,499.37-43.27C436.69,206.25,273.46,304.91,273.46,304.91Z"/></g></g></svg>